<svg width="780" height="408" viewBox="0 0 780 408" fill="none" xmlns="http://www.w3.org/2000/svg">
<path fill-rule="evenodd" clip-rule="evenodd" d="M636.602 194.177C633.845 194.511 630.966 194.86 627.927 195.284C626.258 194.947 624.43 194.631 622.501 194.297C618.159 193.547 613.303 192.708 608.579 191.337C602.455 189.516 601.821 186.454 606.097 181.782C615.904 171.131 627.61 164.11 642.299 162.315C652.871 161.022 662.268 156.693 668.432 147.692C680.6 129.927 680.877 110.434 674.569 90.7557C673.635 87.8771 670.457 85.664 667.374 83.5176C666.315 82.7806 665.268 82.0515 664.327 81.306C663.8 80.9154 662.748 81.1999 661.713 81.4798C661.245 81.6067 660.779 81.7325 660.367 81.7943C661.139 82.7053 662.052 83.4853 663.073 84.1039C668.933 86.4664 671.718 91.0988 673.288 96.9059C676.12 108.003 675.924 119.657 672.721 130.653C668.352 146.834 658.427 157.313 640.544 158.712C636.047 159.07 631.575 160.911 627.307 162.669L626.884 162.843C606.823 171.145 594.246 186.533 588.227 206.779C584.083 220.743 574.554 227.526 561.963 231.789C560.937 232.022 559.888 232.142 558.836 232.146C559.059 231.749 559.273 231.323 559.48 230.912C559.714 230.448 559.938 230.002 560.155 229.638C560.433 229.172 560.742 228.718 561.048 228.267C561.192 228.055 561.336 227.843 561.475 227.632C561.216 227.578 560.94 227.485 560.665 227.393C560.069 227.193 559.475 226.994 559.06 227.183C557.084 227.866 555.263 228.934 553.702 230.324C549.66 234.867 545.74 239.518 541.817 244.171C539.95 246.387 538.082 248.603 536.201 250.808C535.588 251.367 534.91 251.85 534.182 252.246C534.107 251.408 534.085 250.566 534.116 249.725C535.977 230.852 543.302 214.012 553.622 198.385C555.337 195.789 557.391 193.423 559.447 191.053C560.81 189.482 562.174 187.91 563.442 186.269C564.816 184.486 566.258 182.733 567.701 180.978C571.424 176.451 575.155 171.914 577.761 166.816C582.013 158.496 585.496 149.771 588.973 141.063C590.278 137.795 591.582 134.528 592.926 131.287C593.225 130.11 593.35 128.896 593.295 127.684C592.951 127.905 592.553 128.104 592.154 128.303C591.269 128.744 590.38 129.187 590.062 129.888C588.175 133.998 586.366 138.146 584.556 142.293C581.822 148.561 579.087 154.83 576.085 160.969C572.815 167.505 569.061 173.787 564.854 179.763C563.006 182.442 560.802 183.155 558.875 178.588C557.806 176.041 553.702 173.52 550.785 173.309C545.804 173.167 540.833 173.841 536.069 175.302C532.902 176.153 529.784 177.251 526.671 178.347C521.961 180.005 517.26 181.661 512.405 182.455C504.645 183.722 498.389 186.111 493.532 192.446C492.429 193.851 490.78 194.788 489.125 195.729C488.246 196.229 487.365 196.73 486.563 197.303C485.734 197.897 484.904 198.489 484.074 199.082C479.829 202.113 475.58 205.146 471.452 208.336C470.211 209.294 468.993 210.297 467.776 211.299C461.627 216.364 455.487 221.421 446.376 220.584C445.425 220.492 444.119 221.732 443.353 222.656C438.895 228.129 434.464 233.629 430.034 239.13C427.081 242.797 424.129 246.463 421.167 250.121C420.621 250.773 420.016 251.343 419.414 251.909C419.115 252.191 418.817 252.471 418.528 252.761C418.126 251.619 417.848 250.438 417.696 249.237C417.498 236.092 422.593 224.306 428.558 213.18C431.993 206.808 436.539 200.988 441.075 195.182C442.57 193.267 444.065 191.354 445.518 189.424C446.23 188.447 449.226 187.695 449.477 188.038C452.798 192.717 455.264 189.928 457.171 187.771C457.599 187.287 457.998 186.836 458.372 186.507C460.526 184.615 462.4 182.387 464.272 180.16C466.357 177.679 468.442 175.2 470.911 173.19C476.575 168.481 482.777 164.458 489.388 161.206C493.413 159.289 497.597 157.664 501.777 156.04C513.453 151.503 525.103 146.976 533.218 136.13C533.753 135.39 534.61 134.911 535.475 134.429C535.997 134.137 536.522 133.844 536.98 133.491C539.768 131.312 542.683 129.261 545.6 127.209C555.192 120.461 564.811 113.693 570.054 102.278C571.026 100.551 572.38 99.0707 574.013 97.9486C581.142 92.4131 588.287 86.9023 595.431 81.3917C604.792 74.1709 614.152 66.9503 623.479 59.6745L624.961 58.5174C645.545 42.4451 666.136 26.3668 686.526 10.0369C692.428 5.31256 692.725 4.52998 688.313 0L684.655 1.67624C687.072 3.8928 686.133 5.50664 683.556 7.59523C677.341 12.6408 671.182 17.7584 665.023 22.8756C654.298 31.7862 643.575 40.6956 632.559 49.2216C623.89 55.9387 614.95 62.272 605.998 68.6143C598.856 73.6744 591.705 78.7403 584.677 84.0115C576.316 90.353 568.957 97.9165 562.848 106.448C558.314 112.655 551.866 117.472 545.428 122.282C542.777 124.263 540.127 126.242 537.613 128.317C536.681 129.082 535.612 129.725 534.546 130.364C532.911 131.346 531.286 132.322 530.183 133.728C521.142 145.276 508.234 150.094 495.036 154.278C480.453 158.91 469.129 167.713 459.798 179.591C458.828 180.775 457.754 181.87 456.591 182.864C456.514 182.933 456.437 183.003 456.36 183.073C454.72 184.56 453.085 186.041 452.341 182.02C451.681 178.496 450.361 178.311 447.656 180.951C432.267 195.917 421.062 213.602 415.981 234.284C414.231 241.422 414.312 249.015 414.394 256.603C414.429 259.831 414.464 263.058 414.357 266.249C414.538 267.248 414.89 268.209 415.4 269.087C416.083 268.301 416.726 267.482 417.327 266.632C419.571 263.133 421.803 259.626 424.035 256.118C429.313 247.825 434.592 239.531 440.027 231.341C441.458 229.153 443.634 227.558 446.151 226.853C455.733 225.211 462.97 219.641 470.283 214.012C470.786 213.625 471.29 213.237 471.795 212.85C476.585 209.189 481.503 205.683 486.419 202.177C488.397 200.767 490.375 199.357 492.344 197.936C492.611 197.744 492.924 197.59 493.234 197.437C493.752 197.183 494.262 196.932 494.535 196.511C499.412 189.119 506.954 187.565 514.563 185.997C516.056 185.69 517.552 185.382 519.03 185.029C522.285 184.246 525.442 183.112 528.601 181.976C530.771 181.196 532.942 180.416 535.145 179.75C535.485 179.642 535.826 179.533 536.168 179.424C539.556 178.341 543.03 177.23 546.482 177.11C554.969 176.806 557.74 180.871 553.886 188.685C549.958 197.239 545.197 205.387 539.672 213.009C535.026 219.08 534.116 225.481 533.271 232.476C532.556 238.465 531.585 244.428 530.614 250.393C529.936 254.561 529.257 258.73 528.665 262.91C528.511 263.971 528.868 265.101 529.226 266.235C529.389 266.751 529.552 267.268 529.668 267.78C529.996 267.397 530.334 267.024 530.672 266.652C531.393 265.857 532.114 265.063 532.743 264.164C534.48 261.753 536.182 259.313 537.884 256.873C541.448 251.766 545.012 246.656 548.897 241.807C552.685 237.082 554.929 237.808 557.093 243.364C557.836 245.281 558.592 247.195 559.347 249.109C561.086 253.519 562.826 257.928 564.418 262.382C564.682 263.108 563.468 265.22 562.795 265.286C558.954 265.668 559.033 267.015 560.855 269.918C575.095 292.711 593.995 309.802 619.678 318.751C620.471 319.129 621.309 319.405 622.173 319.569C626.227 319.872 630.291 320.118 634.348 320.364C635.059 320.407 635.769 320.45 636.479 320.493C635.492 319.57 634.491 318.662 633.489 317.754C631.196 315.675 628.905 313.597 626.792 311.347C624.333 308.735 621.966 306.038 619.6 303.342C617.483 300.93 615.366 298.519 613.185 296.169C611.78 294.943 610.244 293.876 608.605 292.988C608.766 293.508 608.883 294.066 609 294.625C609.258 295.854 609.516 297.085 610.242 297.911C613.795 301.93 617.505 305.815 621.214 309.7C622.45 310.995 623.687 312.29 624.918 313.59C625.489 314.186 626.081 314.767 626.674 315.348C627.014 315.68 627.353 316.013 627.689 316.349C626.468 316.426 625.242 316.332 624.047 316.072C605.834 309.38 588.359 301.554 577.088 284.396C575.583 282.097 573.686 280.053 571.785 278.003C570.335 276.441 568.883 274.875 567.599 273.191C567.018 272.399 568.14 269.232 568.219 269.232C573.3 269.832 572.283 267.954 571.114 265.795C570.867 265.341 570.614 264.874 570.41 264.415C567.15 257.024 564.009 249.567 561.053 242.044C559.72 238.652 560.934 236.356 564.577 234.851C569.147 232.957 573.557 230.642 577.955 228.334C578.612 227.99 579.269 227.645 579.926 227.302C583.278 225.547 585.232 226.167 586.023 230.034C586.268 231.281 586.492 232.538 586.716 233.797C587.46 237.976 588.208 242.172 589.719 246.056C592.89 254.389 596.675 262.475 601.043 270.248C604.501 276.253 604.883 282.166 603.946 288.607C603.868 290.118 603.934 291.634 604.144 293.133C604.506 292.776 604.966 292.42 605.426 292.063C606.427 291.288 607.43 290.511 607.43 289.715C607.572 281.852 610.09 283.377 613.223 285.276C614.181 285.856 615.197 286.472 616.22 286.864C624.636 290.101 633.296 292.734 641.939 295.361C643.516 295.84 645.093 296.32 646.668 296.802C647.508 297.061 648.555 296.732 649.56 296.416C649.992 296.28 650.416 296.147 650.812 296.063C650.118 295.041 649.355 294.066 648.529 293.147C642.027 286.653 635.503 280.182 628.956 273.732C628.255 273.04 627.478 272.411 626.704 271.784C626.357 271.502 626.01 271.221 625.67 270.934C625.741 271.49 625.746 272.109 625.751 272.732C625.762 274.077 625.772 275.438 626.449 276.214C629.542 279.778 632.875 283.137 636.211 286.499C637.359 287.656 638.508 288.813 639.647 289.979C640.1 290.441 640.574 290.883 641.049 291.326C641.348 291.605 641.647 291.884 641.943 292.17C641.561 292.126 641.177 292.089 640.792 292.053C640.024 291.979 639.255 291.906 638.498 291.774C627.175 289.9 615.798 285.386 609.067 277.164C603.036 269.797 599.324 260.447 595.654 251.199C594.609 248.567 593.568 245.944 592.477 243.377C591.122 240.191 590.5 236.69 589.88 233.195C589.534 231.245 589.188 229.298 588.716 227.408C586.17 216.682 590.772 207.915 595.36 199.176C596.242 197.495 597.124 195.815 597.954 194.122C598.438 193.597 599.045 193.201 599.72 192.971C600.395 192.74 601.118 192.682 601.821 192.802C606.433 194.169 610.933 195.885 615.283 197.936C616.365 198.464 617.263 201.276 616.88 202.595C611.324 222.221 612.736 241.424 618.926 260.666C619.78 263.343 619.381 266.421 618.982 269.505C618.788 270.998 618.595 272.493 618.543 273.944C618.568 274.992 618.665 276.037 618.833 277.072C619.122 276.832 619.469 276.614 619.818 276.396C620.506 275.965 621.202 275.529 621.473 274.907C623.532 270.129 625.221 265.708 622.991 259.927C616.318 242.865 615.246 224.122 619.929 206.41C620.327 204.861 621.291 203.456 622.253 202.052C622.694 201.41 623.133 200.769 623.519 200.114C623.988 202.602 624.327 205.113 624.535 207.637C624.616 209.832 624.613 212.033 624.61 214.235C624.606 217.422 624.602 220.609 624.852 223.778C624.982 225.466 625.817 227.146 626.644 228.813C626.904 229.336 627.163 229.857 627.399 230.377C628.114 231.938 628.797 233.517 629.479 235.095C631.276 239.251 633.071 243.404 635.463 247.231C638.023 251.296 641.415 255.928 645.546 257.67C653.294 260.925 661.347 263.44 669.399 265.955C672.58 266.948 675.762 267.942 678.924 268.981C679.121 269.083 679.336 269.146 679.557 269.166L686.354 268.07L680.996 264.52V264.494C675.43 265.586 670.588 263.541 665.773 261.506C663.897 260.714 662.026 259.923 660.117 259.32C658.051 258.658 656.038 257.81 654.027 256.962C652.029 256.121 650.033 255.279 647.988 254.622C642.418 252.774 639.541 248.907 637.997 243.43L637.894 243.063C636.881 239.467 635.781 235.562 633.496 232.805C627.637 225.718 627.016 217.72 627.742 209.221C627.764 208.955 627.836 208.709 627.907 208.468C627.962 208.279 628.017 208.093 628.046 207.901C628.22 206.93 628.339 205.709 628.456 204.493C628.704 201.943 628.949 199.413 629.709 199.243C635.915 198.071 642.227 197.549 648.542 197.686C649.479 197.672 651.182 201.012 651.182 202.807C651.251 214.231 654.275 225.443 659.958 235.353C661.08 237.28 662.004 240.276 661.278 242.084C659.061 247.68 660.222 251.428 665.37 254.45C669.103 256.639 672.699 259.004 676.299 261.371C677.93 262.443 679.561 263.516 681.207 264.573C679.893 263.263 678.575 261.953 677.256 260.642C673.95 257.356 670.636 254.062 667.362 250.742C667.23 250.599 667.083 250.446 666.927 250.285C666.075 249.401 665.006 248.293 665.185 247.6C666.974 240.345 664.012 234.379 661.055 228.422C658.863 224.007 656.674 219.598 656.421 214.671C656.345 213.224 656.255 211.776 656.165 210.329C655.93 206.551 655.695 202.775 655.695 199.005C655.85 198.211 656.173 197.458 656.642 196.798C657.11 196.138 657.715 195.586 658.414 195.178C673.671 186.401 685.193 173.705 693.772 158.804C698.394 150.724 702.229 142.183 706.068 133.634C708.5 128.22 710.933 122.802 713.569 117.495C714.988 114.674 717.406 112.482 720.352 111.345C738.302 106.215 756.339 101.406 774.464 96.9191C775.41 96.6855 776.614 96.8085 777.807 97.1611L779.973 92.072C778.561 91.4587 777.029 91.4461 774.966 92.0095C772.955 92.5616 770.945 93.1155 768.935 93.6695C754.221 97.7234 739.489 101.782 724.615 105.207C715.997 107.2 710.414 111.569 707.775 119.857C707.443 120.886 707.008 121.879 706.573 122.872C706.127 123.892 705.681 124.911 705.346 125.968C698.008 149.183 684.691 168.479 666.623 184.514C663.117 187.722 658.902 190.055 654.323 191.324C648.781 192.7 643.026 193.398 636.602 194.177ZM118.9 392.162H123.24C122.181 389.003 123.802 385.872 127.856 379.171C133.291 370.192 139.675 361.786 146.055 353.386C147.778 351.118 149.5 348.85 151.203 346.572C151.955 345.569 154.661 345.265 156.112 345.714C159.434 346.861 162.657 348.278 165.747 349.951C181.492 357.988 197.58 359.176 214.17 352.788C216.245 351.985 218.378 351.325 220.508 350.665C222.159 350.154 223.809 349.643 225.428 349.066C243.241 342.538 260.766 345.973 278.261 349.403C280.962 349.932 283.663 350.461 286.363 350.954C287.869 351.224 289.165 353.571 290.214 355.471C290.342 355.702 290.466 355.927 290.587 356.141C291.335 357.461 291.937 358.933 292.536 360.397C293.65 363.117 294.751 365.808 296.75 367.438C300.278 370.117 304.701 371.336 309.103 370.843C311.466 370.447 314.251 365.208 314.607 361.908C315.148 357.13 317.049 356.246 321.206 356.075C330.101 355.692 336.133 351.508 337.532 345.397C339.05 338.482 335.499 330.8 328.491 326.366C327.334 325.641 326.13 324.978 324.928 324.315C323.045 323.277 321.163 322.241 319.464 320.968C318.708 320.401 317.888 319.874 317.064 319.344C313.613 317.126 310.096 314.867 310.991 309.433C311.006 308.99 310.876 308.555 310.621 308.192C309.591 306.513 308.54 304.848 307.488 303.182C307.085 302.543 306.682 301.904 306.279 301.263C309.139 302.132 312.053 302.811 315.003 303.296C322.328 304.048 327.977 306.807 332.16 313.406C333.61 315.661 335.882 317.371 338.164 319.09C339.436 320.047 340.71 321.006 341.848 322.063C343.45 323.376 344.732 325.037 345.596 326.92C350.202 340.105 370.065 345.437 380.201 331.672C380.99 330.697 382.024 329.95 383.197 329.507C389.677 326.96 392.911 321.021 390.509 314.501C386.642 303.943 382.392 293.833 372.652 286.785C368.642 283.889 365.232 280.156 361.825 276.425C360.466 274.938 359.108 273.45 357.712 272.017C357.186 271.247 356.794 270.395 356.55 269.496C357.284 269.832 357.998 270.211 358.688 270.631C359.725 271.341 360.762 272.048 361.799 272.755C365.289 275.136 368.774 277.512 372.203 279.975C380.201 285.782 389.44 286.152 398.678 285.069C406.293 284.172 410.451 277.639 405.818 272.043C404.634 270.618 403.468 269.171 402.302 267.724C394.722 258.316 387.114 248.874 374.143 244.974C364.927 242.191 356.192 237.734 347.497 233.297C345.222 232.136 342.95 230.977 340.673 229.849C331.21 225.164 321.338 224.359 311.189 225.679C306.326 226.316 301.502 227.304 296.676 228.292C294.612 228.715 292.549 229.137 290.481 229.532C281.031 231.314 272.228 231.75 262.356 228.424C254.478 225.809 246.158 224.787 237.882 225.417C229.605 226.046 221.536 228.316 214.144 232.093C197.158 240.553 179.367 244.987 160.956 247.93C156.561 248.639 152.151 249.268 147.742 249.897C140.485 250.932 133.231 251.967 126.047 253.355C120.494 254.465 115.13 256.368 110.118 259.003C94.7155 267.081 82.1114 277.982 72.6749 293.147C68.5474 299.759 62.5568 305.23 56.608 310.663C54.7198 312.388 52.8358 314.108 51.017 315.86C50.3923 316.459 48.6744 316.504 47.1839 316.166L46.8172 320.88C48.4323 321.422 50.4926 321.549 51.1226 320.928C53.3115 318.801 55.5703 316.712 57.8325 314.619C64.7911 308.183 71.7823 301.717 76.8718 294.018C84.9948 281.72 95.8889 271.5 108.679 264.177C113.721 261.221 119.251 258.436 124.899 257.341C130.739 256.212 136.66 255.492 142.581 254.771C149.265 253.958 155.949 253.144 162.513 251.745C165.456 251.121 168.408 250.543 171.36 249.965C184.652 247.361 197.933 244.76 210.277 238.032C226.141 229.374 243.773 228.543 261.525 231.182C262.923 231.601 264.256 232.214 265.484 233.003L265.448 233.023C264.376 233.598 263.255 234.199 262.251 234.904C261.409 235.565 260.603 236.27 259.835 237.016C260.996 237.359 262.202 237.528 263.412 237.517C266.963 236.955 270.517 236.409 274.072 235.864C285.039 234.181 296.009 232.497 306.873 230.324C319.437 227.803 331.091 229.07 342.508 235.115C344.163 235.997 345.821 236.909 347.484 237.824C354.954 241.935 362.535 246.107 370.566 247.878C380.672 250.106 386.891 256.687 393.09 263.246C395.74 266.05 398.386 268.85 401.331 271.304C405.673 274.92 403.35 279.737 397.503 281.057C387.367 283.446 377.746 281.216 370.712 274.102C363.663 267.007 354.913 264.658 346.174 262.313C342.428 261.307 338.684 260.302 335.077 258.924C334.061 258.549 332.723 259.125 331.39 259.699C330.8 259.953 330.211 260.206 329.653 260.376C327.031 261.161 324.417 261.981 321.802 262.802C315.928 264.647 310.052 266.491 304.088 267.925C297.766 269.456 293.041 272.083 289.478 277.877C283.447 287.669 276.346 296.604 263.887 298.875C261.539 299.407 259.287 300.297 257.209 301.514C253.21 303.679 249.501 303.877 245.542 301.237C244.166 300.332 242.535 299.83 240.901 299.327C240.153 299.097 239.404 298.867 238.679 298.597C239.246 299.219 239.803 299.851 240.36 300.484C241.672 301.972 242.984 303.461 244.42 304.814C244.94 305.317 245.689 305.6 246.448 305.887C246.961 306.081 247.478 306.276 247.931 306.543C258.355 312.655 269.986 313.369 281.525 314.078C282.17 314.117 282.815 314.157 283.46 314.197C301.91 315.385 317.867 321.984 331.223 334.747C334.971 338.31 333.493 349.119 329.046 349.726C328.786 349.761 328.526 349.796 328.266 349.831C320.349 350.897 312.147 352.001 304.365 350.927C297.85 350.038 291.418 348.506 284.987 346.974C278.157 345.347 271.328 343.72 264.402 342.863C251.93 341.332 239.167 339.788 226.642 344.632C218.646 347.745 210.342 350.001 201.87 351.363C195.033 352.534 188.04 352.463 181.228 351.152C163.596 347.39 149.619 337.386 138.718 323.093C135.207 318.474 131.116 315.702 124.833 315.834C103.944 316.288 91.0783 329.64 78.191 343.014C77.2202 344.021 76.2493 345.029 75.2749 346.031C74.9762 346.33 74.9754 346.92 74.9747 347.508C74.9743 347.778 74.9739 348.047 74.9449 348.288C75.1787 348.26 75.4303 348.254 75.6827 348.247C76.2708 348.233 76.8627 348.218 77.2413 347.931C78.0221 347.342 78.7329 346.646 79.4381 345.956C79.9966 345.409 80.5515 344.865 81.1348 344.381C83.7747 342.274 86.3716 340.099 88.9683 337.925C95.1213 332.772 101.273 327.621 107.993 323.37C119.369 316.164 129.782 318.566 138.612 328.464C139.193 329.072 139.813 329.731 140.38 330.391C150.02 341.317 149.979 341.373 141.592 352.815L141.186 353.369C140.538 354.253 139.888 355.138 139.237 356.023C133.536 363.775 127.795 371.583 123.329 380.029C120.141 386.045 118.579 389.31 118.9 392.162ZM335.206 262.463C332.648 263.375 330.146 264.265 327.682 265.141C322.517 266.978 317.52 268.756 312.535 270.552C311.225 271.022 309.935 271.55 308.646 272.078C308.091 272.306 307.535 272.533 306.979 272.756C308.642 273.816 310.411 274.701 312.258 275.395C320.902 277.745 327.475 282.826 334.061 288.871C337.548 292.067 341.97 294.224 346.417 296.393C349.039 297.672 351.669 298.956 354.122 300.458C356.669 302.016 359.797 304.418 360.47 306.965C362.938 316.507 369.392 323.238 378.947 324.782C384.939 325.746 388.859 322.855 386.8 317.431C383.539 308.719 379.122 300.484 373.668 292.949C371.092 289.447 367.836 286.436 364.584 283.428C361.07 280.178 357.559 276.931 354.914 273.073C351.413 267.931 346.643 266.479 342 265.065C339.641 264.347 337.315 263.639 335.206 262.463ZM367.544 335.525C366.213 335.951 364.824 336.165 363.426 336.159L363.374 336.132C356.656 335.182 352.036 331.328 349.212 325.099C348.579 323.277 347.647 321.573 346.454 320.057C341.124 314.38 335.46 309.026 329.494 304.022C326.472 301.646 322.143 300.643 318.184 299.838C309.249 298.004 301.013 295.113 294.071 288.857C289.405 284.659 291.744 281.105 294.083 277.55C294.251 277.294 294.42 277.038 294.586 276.781C297.054 272.967 300.168 272.769 304.128 275.092C306.623 276.534 309.316 277.627 312.012 278.722C313.979 279.521 315.947 280.32 317.84 281.255C320.79 282.572 323.508 284.354 325.891 286.534C333.572 294.242 341.821 300.828 352.472 304.061C353.496 304.488 354.415 305.132 355.167 305.947C355.918 306.763 356.485 307.731 356.827 308.786C358.781 316.309 363.637 321.324 369.629 325.68C371.51 327.252 373.275 328.959 374.909 330.787C374.238 331.229 373.574 331.681 372.909 332.133C371.155 333.327 369.401 334.52 367.544 335.525ZM305.47 313.147C305.321 313.31 305.215 313.427 305.184 313.471L305.131 313.445C302.919 313.175 300.882 312.941 298.968 312.722C294.897 312.254 291.377 311.85 287.894 311.294C285.546 311.001 283.292 310.189 281.295 308.918C274.393 303.929 274.38 300.062 280.847 294.519L281.054 294.341C287.785 288.558 288.28 288.132 295.1 294.664C298.951 298.323 301.961 302.891 304.946 307.421C305.665 308.511 306.383 309.6 307.111 310.674C307.375 311.055 306.075 312.483 305.47 313.147ZM297.177 354.174C297.435 353.964 297.649 353.789 297.766 353.659C307.678 353.659 310.912 355.718 310.766 360.997C310.674 364.455 309.895 367.689 305.593 367.913C301.581 368.124 294.85 361.235 295.127 356.84C295.186 355.795 296.386 354.818 297.177 354.174ZM274.723 308.034L269.509 309.354L259.057 305.751C260.05 305.443 261.045 305.067 262.041 304.692C264.46 303.78 266.883 302.866 269.285 302.913C270.558 302.931 271.799 304.495 273.039 306.058C273.599 306.765 274.16 307.471 274.723 308.034Z" fill="black"/>
<path fill-rule="evenodd" clip-rule="evenodd" d="M589.784 210.015C587.028 210.349 584.149 210.698 581.11 211.122C579.441 210.784 577.613 210.469 575.684 210.135C571.342 209.385 566.485 208.546 561.761 207.175C555.638 205.354 555.004 202.292 559.28 197.62C569.086 186.969 580.793 179.948 595.482 178.153C606.054 176.86 615.451 172.531 621.614 163.53C633.783 145.765 634.06 126.272 627.751 106.594C626.818 103.715 623.64 101.502 620.557 99.3555C619.498 98.6185 618.451 97.8894 617.51 97.1439C616.983 96.7533 615.931 97.0378 614.896 97.3177C614.427 97.4446 613.962 97.5705 613.55 97.6322C614.321 98.5432 615.235 99.3232 616.256 99.9418C622.116 102.304 624.901 106.937 626.471 112.744C629.303 123.841 629.107 135.495 625.904 146.491C621.535 162.672 611.61 173.151 593.727 174.55C589.23 174.908 584.758 176.749 580.49 178.507L580.067 178.681C560.006 186.982 547.428 202.371 541.41 222.617C537.266 236.58 527.737 243.364 515.146 247.627C514.12 247.86 513.071 247.979 512.018 247.983C512.241 247.587 512.456 247.161 512.663 246.75C512.897 246.286 513.121 245.84 513.338 245.476C513.616 245.01 513.925 244.555 514.23 244.105C514.375 243.893 514.518 243.681 514.658 243.47C514.399 243.416 514.123 243.323 513.848 243.231C513.252 243.031 512.658 242.832 512.243 243.021C510.267 243.704 508.446 244.772 506.884 246.162C502.843 250.704 498.922 255.356 495 260.009C493.133 262.225 491.265 264.441 489.384 266.645C488.771 267.204 488.093 267.687 487.364 268.084C487.29 267.246 487.268 266.404 487.299 265.563C489.159 246.69 496.484 229.849 506.805 214.223C508.52 211.627 510.573 209.261 512.63 206.891C513.993 205.32 515.357 203.748 516.624 202.107C517.999 200.324 519.441 198.571 520.884 196.816C524.607 192.289 528.338 187.752 530.944 182.654C535.195 174.334 538.679 165.609 542.156 156.901C543.461 153.633 544.765 150.366 546.109 147.125C546.408 145.948 546.532 144.734 546.478 143.522C546.134 143.743 545.736 143.941 545.337 144.14C544.452 144.582 543.563 145.025 543.245 145.726C541.358 149.836 539.548 153.983 537.739 158.131C535.005 164.399 532.27 170.668 529.268 176.807C525.998 183.343 522.244 189.625 518.037 195.601C516.189 198.28 513.985 198.993 512.058 194.426C510.989 191.879 506.884 189.358 503.968 189.147C498.987 189.005 494.016 189.678 489.252 191.14C486.084 191.991 482.967 193.088 479.853 194.185C475.144 195.843 470.442 197.499 465.588 198.293C457.827 199.56 451.572 201.949 446.715 208.284C445.612 209.689 443.963 210.626 442.308 211.567C441.429 212.067 440.548 212.568 439.746 213.141C438.917 213.735 438.087 214.327 437.256 214.92C433.012 217.951 428.763 220.984 424.635 224.174C423.394 225.132 422.176 226.134 420.959 227.137C414.81 232.202 408.67 237.259 399.558 236.422C398.608 236.33 397.302 237.57 396.536 238.494C392.077 243.966 387.647 249.467 383.217 254.968C380.264 258.635 377.311 262.301 374.35 265.959C373.804 266.611 373.199 267.181 372.597 267.747C372.298 268.029 372 268.309 371.711 268.599C371.309 267.457 371.03 266.276 370.879 265.075C370.681 251.93 375.776 240.144 381.741 229.018C385.175 222.646 389.722 216.826 394.258 211.02C395.753 209.105 397.248 207.192 398.701 205.262C399.413 204.285 402.409 203.533 402.66 203.876C405.981 208.555 408.447 205.766 410.354 203.609C410.781 203.125 411.181 202.674 411.555 202.345C413.709 200.453 415.582 198.225 417.455 195.998C419.54 193.517 421.624 191.038 424.093 189.028C429.758 184.318 435.96 180.296 442.571 177.044C446.596 175.127 450.779 173.502 454.959 171.878C466.636 167.341 478.286 162.814 486.401 151.968C486.936 151.228 487.793 150.749 488.658 150.267C489.18 149.975 489.705 149.682 490.162 149.329C492.951 147.15 495.865 145.099 498.782 143.047C508.375 136.298 517.994 129.531 523.237 118.115C524.209 116.389 525.563 114.909 527.196 113.786C534.325 108.251 541.469 102.74 548.613 97.2296C557.974 90.0088 567.335 82.7882 576.662 75.5124L578.144 74.3553C598.728 58.283 619.319 42.2047 639.709 25.8748C645.611 21.1505 645.907 20.3679 641.495 15.8379L637.838 17.5141C640.255 19.7307 639.316 21.3445 636.739 23.4331C630.524 28.4787 624.364 33.5963 618.206 38.7135C607.481 47.6241 596.758 56.5335 585.742 65.0596C577.072 71.7766 568.133 78.1099 559.181 84.4522C552.039 89.5123 544.888 94.5782 537.86 99.8494C529.499 106.191 522.14 113.754 516.031 122.286C511.497 128.493 505.049 133.31 498.611 138.12C495.96 140.1 493.31 142.08 490.796 144.155C489.864 144.92 488.794 145.562 487.729 146.202C486.094 147.184 484.468 148.16 483.366 149.566C474.325 161.114 461.417 165.932 448.219 170.115C433.636 174.748 422.312 183.551 412.981 195.429C412.011 196.613 410.937 197.708 409.774 198.702C409.697 198.771 409.62 198.841 409.543 198.911C407.903 200.397 406.268 201.879 405.524 197.858C404.864 194.334 403.544 194.149 400.839 196.789C385.45 211.755 374.245 229.44 369.163 250.122C367.414 257.26 367.495 264.853 367.577 272.44C367.612 275.669 367.646 278.896 367.54 282.087C367.72 283.086 368.073 284.046 368.583 284.925C369.266 284.139 369.909 283.32 370.51 282.47C372.753 278.971 374.985 275.464 377.217 271.957C382.496 263.663 387.775 255.369 393.21 247.178C394.641 244.991 396.817 243.396 399.334 242.691C408.916 241.049 416.153 235.479 423.465 229.85C423.969 229.463 424.473 229.075 424.978 228.688C429.768 225.027 434.686 221.521 439.602 218.015C441.58 216.605 443.558 215.194 445.527 213.774C445.794 213.582 446.107 213.428 446.417 213.275C446.935 213.021 447.445 212.77 447.718 212.349C452.594 204.957 460.137 203.403 467.746 201.835C469.239 201.528 470.735 201.22 472.213 200.867C475.468 200.084 478.625 198.95 481.784 197.814C483.954 197.034 486.124 196.254 488.328 195.588C488.668 195.48 489.009 195.371 489.351 195.261C492.738 194.179 496.213 193.068 499.665 192.948C508.151 192.644 510.923 196.709 507.069 204.523C503.141 213.077 498.38 221.225 492.855 228.846C488.209 234.917 487.299 241.319 486.454 248.313C485.739 254.303 484.768 260.266 483.797 266.231C483.118 270.399 482.44 274.568 481.848 278.748C481.694 279.809 482.051 280.939 482.409 282.073C482.572 282.589 482.735 283.106 482.851 283.618C483.179 283.235 483.517 282.862 483.855 282.49C484.576 281.695 485.297 280.901 485.926 280.002C487.662 277.591 489.364 275.152 491.067 272.712C494.63 267.604 498.195 262.494 502.08 257.644C505.868 252.92 508.112 253.645 510.276 259.202C511.019 261.119 511.774 263.033 512.53 264.947C514.269 269.356 516.009 273.766 517.601 278.22C517.865 278.946 516.651 281.058 515.978 281.124C512.137 281.506 512.216 282.853 514.038 285.756C528.278 308.549 547.178 325.64 572.861 334.589C573.654 334.967 574.492 335.242 575.355 335.407C579.411 335.71 583.475 335.956 587.534 336.202C588.243 336.245 588.953 336.288 589.662 336.331C588.675 335.408 587.673 334.5 586.672 333.592C584.379 331.513 582.087 329.435 579.975 327.185C577.516 324.573 575.149 321.876 572.783 319.18C570.666 316.768 568.549 314.357 566.368 312.007C564.963 310.781 563.427 309.714 561.788 308.826C561.949 309.346 562.066 309.904 562.183 310.463C562.441 311.692 562.699 312.923 563.424 313.749C566.978 317.768 570.688 321.653 574.397 325.539C575.634 326.834 576.87 328.128 578.101 329.428C578.672 330.024 579.264 330.605 579.858 331.186C580.197 331.518 580.536 331.851 580.872 332.187C579.651 332.264 578.425 332.17 577.23 331.909C559.016 325.218 541.542 317.392 530.271 300.234C528.766 297.935 526.869 295.89 524.967 293.841C523.518 292.278 522.066 290.713 520.782 289.029C520.201 288.237 521.323 285.07 521.402 285.07C526.483 285.669 525.466 283.792 524.296 281.633C524.05 281.179 523.797 280.712 523.593 280.253C520.333 272.862 517.192 265.405 514.236 257.882C512.903 254.49 514.117 252.194 517.759 250.689C522.33 248.794 526.74 246.48 531.138 244.172C531.795 243.827 532.452 243.483 533.109 243.14C536.461 241.385 538.414 242.005 539.206 245.872C539.451 247.119 539.675 248.376 539.899 249.635C540.643 253.813 541.39 258.01 542.902 261.894C546.072 270.227 549.857 278.313 554.225 286.086C557.683 292.091 558.066 298.004 557.129 304.444C557.051 305.956 557.117 307.472 557.327 308.971C557.689 308.614 558.149 308.258 558.609 307.901C559.61 307.126 560.613 306.349 560.613 305.553C560.755 297.69 563.272 299.215 566.406 301.114C567.364 301.694 568.38 302.31 569.403 302.702C577.818 305.939 586.478 308.571 595.12 311.198C596.698 311.678 598.276 312.157 599.851 312.64C600.691 312.899 601.738 312.57 602.743 312.254C603.174 312.118 603.598 311.985 603.995 311.901C603.3 310.879 602.538 309.904 601.712 308.985C595.21 302.491 588.685 296.02 582.139 289.57C581.438 288.878 580.661 288.249 579.887 287.622C579.54 287.34 579.192 287.059 578.853 286.772C578.924 287.328 578.929 287.947 578.934 288.57C578.944 289.915 578.955 291.276 579.632 292.052C582.724 295.616 586.058 298.975 589.394 302.337C590.542 303.494 591.691 304.651 592.83 305.817C593.283 306.279 593.757 306.72 594.232 307.164C594.531 307.443 594.83 307.722 595.126 308.008C594.743 307.964 594.359 307.927 593.975 307.891C593.206 307.817 592.438 307.744 591.681 307.612C580.357 305.738 568.981 301.224 562.25 293.002C556.219 285.635 552.507 276.285 548.836 267.037C547.792 264.405 546.75 261.782 545.66 259.215C544.304 256.029 543.683 252.528 543.063 249.033C542.717 247.083 542.371 245.136 541.899 243.245C539.353 232.52 543.955 223.753 548.542 215.014C549.425 213.333 550.307 211.653 551.137 209.96C551.62 209.435 552.227 209.039 552.903 208.808C553.578 208.578 554.301 208.52 555.004 208.64C559.615 210.007 564.116 211.723 568.466 213.774C569.548 214.302 570.446 217.113 570.063 218.433C564.507 238.059 565.919 257.262 572.109 276.504C572.962 279.181 572.564 282.259 572.165 285.343C571.971 286.836 571.778 288.331 571.726 289.781C571.751 290.83 571.848 291.875 572.016 292.909C572.305 292.67 572.652 292.452 573.001 292.233C573.689 291.802 574.384 291.367 574.656 290.745C576.715 285.967 578.404 281.546 576.174 275.765C569.501 258.703 568.429 239.96 573.112 222.247C573.51 220.699 574.474 219.294 575.436 217.89C575.876 217.248 576.316 216.607 576.702 215.952C577.171 218.44 577.51 220.951 577.718 223.475C577.799 225.67 577.796 227.871 577.793 230.073C577.789 233.26 577.785 236.447 578.035 239.616C578.165 241.304 578.999 242.984 579.827 244.651C580.087 245.174 580.345 245.695 580.582 246.215C581.297 247.776 581.98 249.355 582.662 250.932C584.459 255.089 586.254 259.242 588.646 263.069C591.206 267.134 594.598 271.766 598.729 273.508C606.477 276.763 614.53 279.278 622.582 281.793C625.763 282.786 628.945 283.78 632.107 284.819C632.304 284.921 632.519 284.984 632.74 285.004L639.537 283.908L634.179 280.358V280.332C628.613 281.424 623.771 279.379 618.956 277.344C617.08 276.552 615.208 275.761 613.3 275.158C611.234 274.496 609.221 273.648 607.21 272.8C605.212 271.959 603.216 271.117 601.171 270.46C595.601 268.612 592.724 264.745 591.18 259.268L591.076 258.901C590.063 255.305 588.964 251.4 586.679 248.643C580.819 241.556 580.199 233.558 580.925 225.059C580.947 224.793 581.019 224.547 581.089 224.306C581.145 224.117 581.199 223.93 581.229 223.739C581.403 222.767 581.522 221.547 581.639 220.331C581.886 217.781 582.132 215.251 582.891 215.081C589.098 213.909 595.41 213.387 601.725 213.524C602.662 213.51 604.365 216.849 604.365 218.644C604.434 230.069 607.457 241.28 613.141 251.191C614.263 253.117 615.187 256.113 614.461 257.922C612.244 263.518 613.405 267.266 618.552 270.288C622.286 272.477 625.882 274.841 629.482 277.209C631.113 278.281 632.744 279.354 634.39 280.411C633.076 279.101 631.758 277.791 630.438 276.479C627.132 273.193 623.819 269.9 620.545 266.579C620.413 266.437 620.265 266.284 620.11 266.123C619.258 265.239 618.189 264.131 618.368 263.438C620.157 256.183 617.195 250.217 614.237 244.259C612.046 239.845 609.857 235.435 609.604 230.509C609.527 229.062 609.437 227.614 609.348 226.167C609.113 222.389 608.878 218.613 608.878 214.843C609.033 214.049 609.356 213.296 609.824 212.636C610.293 211.976 610.898 211.424 611.597 211.016C626.854 202.239 638.376 189.543 646.954 174.642C651.576 166.562 655.412 158.021 659.251 149.472C661.683 144.057 664.116 138.639 666.751 133.333C668.171 130.512 670.589 128.32 673.535 127.182C691.484 122.053 709.522 117.244 727.647 112.757C728.593 112.523 729.797 112.646 730.99 112.999L733.156 107.91C731.744 107.297 730.212 107.284 728.148 107.847C726.138 108.4 724.128 108.953 722.117 109.507C707.403 113.561 692.672 117.62 677.798 121.045C669.18 123.038 663.597 127.407 660.958 135.695C660.626 136.724 660.191 137.717 659.756 138.71C659.31 139.73 658.863 140.749 658.529 141.806C651.191 165.021 637.874 184.316 619.806 200.352C616.3 203.559 612.085 205.893 607.506 207.162C601.964 208.538 596.209 209.236 589.784 210.015ZM72.0829 408H76.4224C75.3636 404.841 76.9846 401.709 81.0384 395.009C86.4736 386.03 92.8581 377.624 99.2382 369.223C100.961 366.956 102.683 364.688 104.386 362.41C105.138 361.407 107.844 361.103 109.295 361.552C112.617 362.699 115.839 364.116 118.93 365.789C134.675 373.826 150.763 375.014 167.353 368.626C169.427 367.823 171.56 367.163 173.691 366.503C175.342 365.992 176.992 365.481 178.611 364.904C196.423 358.376 213.948 361.811 231.444 365.24C234.145 365.77 236.845 366.299 239.546 366.792C241.052 367.062 242.348 369.409 243.397 371.309C243.525 371.54 243.649 371.765 243.769 371.978C244.517 373.299 245.12 374.771 245.719 376.235C246.832 378.955 247.934 381.646 249.933 383.276C253.461 385.955 257.884 387.174 262.286 386.681C264.649 386.285 267.433 381.046 267.79 377.746C268.331 372.968 270.231 372.084 274.389 371.912C283.284 371.53 289.316 367.346 290.715 361.235C292.232 354.32 288.682 346.638 281.674 342.204C280.517 341.479 279.313 340.816 278.111 340.153C276.227 339.115 274.346 338.078 272.647 336.806C271.891 336.239 271.071 335.712 270.247 335.182C266.796 332.964 263.279 330.704 264.174 325.271C264.189 324.828 264.059 324.392 263.804 324.03C262.774 322.351 261.722 320.685 260.67 319.019C260.267 318.38 259.864 317.741 259.462 317.101C262.322 317.97 265.236 318.649 268.186 319.134C275.511 319.886 281.159 322.644 285.343 329.243C286.793 331.498 289.065 333.209 291.347 334.928C292.618 335.884 293.893 336.844 295.03 337.901C296.633 339.214 297.915 340.875 298.779 342.758C303.385 355.943 323.248 361.275 333.384 347.509C334.173 346.535 335.207 345.788 336.38 345.345C342.86 342.798 346.093 336.859 343.691 330.339C339.824 319.78 335.575 309.671 325.834 302.623C321.825 299.727 318.415 295.994 315.008 292.263C313.649 290.776 312.29 289.288 310.894 287.855C310.369 287.085 309.977 286.233 309.733 285.334C310.467 285.67 311.181 286.049 311.871 286.469C312.907 287.179 313.944 287.886 314.981 288.593C318.472 290.974 321.956 293.35 325.386 295.813C333.384 301.62 342.622 301.99 351.861 300.907C359.476 300.01 363.633 293.477 359.001 287.881C357.817 286.456 356.651 285.009 355.485 283.562C347.905 274.154 340.297 264.712 327.326 260.812C318.11 258.029 309.374 253.572 300.68 249.135C298.405 247.974 296.133 246.815 293.856 245.687C284.393 241.002 274.521 240.197 264.372 241.516C259.509 242.154 254.685 243.142 249.859 244.13C247.795 244.552 245.731 244.975 243.664 245.37C234.214 247.152 225.411 247.588 215.539 244.262C207.661 241.647 199.341 240.625 191.064 241.254C182.788 241.884 174.719 244.154 167.327 247.931C150.341 256.391 132.55 260.825 114.139 263.768C109.744 264.477 105.334 265.106 100.925 265.735C93.6683 266.77 86.4135 267.805 79.2303 269.193C73.6772 270.303 68.3125 272.205 63.3003 274.841C47.8983 282.919 35.2942 293.82 25.8577 308.985C21.7302 315.597 15.7396 321.068 9.79078 326.501C7.90261 328.225 6.01864 329.946 4.19979 331.698C3.57508 332.297 1.85723 332.341 0.366707 332.003L0 336.718C1.61512 337.26 3.67546 337.387 4.30538 336.766C6.49424 334.639 8.75301 332.55 11.0152 330.457C17.9738 324.021 24.9651 317.555 30.0546 309.856C38.1776 297.558 49.0718 287.338 61.8618 280.015C66.9034 277.059 72.4333 274.274 78.0821 273.178C83.9219 272.05 89.8433 271.33 95.7641 270.609C102.448 269.796 109.132 268.982 115.696 267.582C118.639 266.959 121.591 266.381 124.543 265.803C137.835 263.199 151.116 260.598 163.46 253.87C179.324 245.212 196.956 244.38 214.708 247.02C216.106 247.439 217.439 248.052 218.667 248.841L218.63 248.861C217.559 249.436 216.438 250.037 215.433 250.742C214.592 251.403 213.785 252.108 213.018 252.854C214.179 253.197 215.384 253.366 216.595 253.355C220.146 252.793 223.7 252.247 227.255 251.702C238.222 250.019 249.192 248.335 260.056 246.162C272.62 243.641 284.274 244.908 295.69 250.953C297.346 251.835 299.004 252.747 300.667 253.662C308.137 257.773 315.718 261.945 323.749 263.715C333.855 265.944 340.074 272.525 346.273 279.084C348.923 281.888 351.569 284.688 354.514 287.142C358.856 290.758 356.533 295.575 350.686 296.895C340.55 299.284 330.929 297.054 323.894 289.94C316.846 282.845 308.096 280.496 299.357 278.151C295.611 277.145 291.867 276.14 288.26 274.762C287.244 274.387 285.905 274.963 284.573 275.537C283.983 275.791 283.394 276.044 282.835 276.214C280.214 276.998 277.6 277.819 274.985 278.64C269.111 280.485 263.235 282.329 257.271 283.763C250.949 285.294 246.224 287.921 242.661 293.714C236.629 303.507 229.529 312.442 217.07 314.712C214.722 315.245 212.469 316.135 210.392 317.352C206.393 319.517 202.684 319.715 198.725 317.075C197.349 316.17 195.718 315.668 194.084 315.165C193.336 314.935 192.587 314.705 191.862 314.435C192.428 315.057 192.986 315.689 193.543 316.321C194.855 317.81 196.167 319.299 197.603 320.652C198.122 321.155 198.872 321.438 199.63 321.725C200.144 321.919 200.661 322.114 201.114 322.38C211.538 328.492 223.169 329.207 234.707 329.915C235.353 329.955 235.998 329.995 236.643 330.035C255.093 331.223 271.05 337.822 284.406 350.585C288.154 354.148 286.676 364.957 282.228 365.564C281.969 365.599 281.709 365.634 281.449 365.669C273.532 366.735 265.33 367.839 257.548 366.765C251.032 365.876 244.601 364.343 238.17 362.811C231.34 361.185 224.511 359.558 217.585 358.701C205.113 357.17 192.35 355.626 179.825 360.47C171.829 363.583 163.525 365.839 155.053 367.201C148.215 368.372 141.223 368.301 134.411 366.99C116.779 363.228 102.802 353.224 91.9003 338.931C88.3897 334.311 84.2983 331.54 78.0161 331.672C57.1267 332.126 44.2611 345.478 31.3738 358.852C30.403 359.859 29.4321 360.867 28.4577 361.869C28.159 362.167 28.1583 362.758 28.1575 363.346C28.1571 363.616 28.1568 363.885 28.1277 364.126C28.3615 364.098 28.6132 364.092 28.8655 364.085C29.4536 364.071 30.0455 364.056 30.4242 363.769C31.2049 363.18 31.9158 362.484 32.621 361.793C33.1794 361.247 33.7343 360.703 34.3176 360.219C36.9576 358.112 39.5546 355.937 42.1513 353.763C48.3043 348.61 54.456 343.459 61.1755 339.208C72.5521 332.002 82.9653 334.404 91.7948 344.302C92.3755 344.909 92.9958 345.569 93.5633 346.229C103.203 357.155 103.162 357.211 94.7747 368.652L94.3684 369.207C93.7206 370.091 93.0704 370.976 92.4196 371.861C86.719 379.613 80.9773 387.421 76.5115 395.867C73.3237 401.883 71.7621 405.147 72.0829 408ZM288.388 278.3C285.835 279.211 283.336 280.1 280.875 280.975C275.707 282.814 270.706 284.593 265.718 286.39C264.408 286.86 263.118 287.388 261.829 287.916C261.273 288.144 260.718 288.371 260.161 288.594C261.825 289.654 263.594 290.539 265.441 291.233C274.085 293.583 280.658 298.664 287.244 304.708C290.731 307.905 295.153 310.062 299.6 312.231C302.222 313.51 304.852 314.793 307.305 316.296C309.852 317.854 312.98 320.256 313.653 322.803C316.121 332.345 322.575 339.076 332.13 340.62C338.122 341.584 342.042 338.693 339.983 333.269C336.722 324.557 332.305 316.322 326.851 308.787C324.275 305.285 321.019 302.274 317.766 299.265C314.252 296.016 310.742 292.769 308.096 288.91C304.596 283.769 299.826 282.317 295.183 280.903C292.824 280.185 290.498 279.477 288.388 278.3ZM320.727 351.363C319.396 351.789 318.006 352.003 316.609 351.997L316.556 351.97C309.839 351.02 305.219 347.166 302.395 340.937C301.762 339.115 300.829 337.411 299.636 335.895C294.306 330.218 288.643 324.864 282.677 319.86C279.655 317.484 275.326 316.481 271.366 315.676C262.431 313.841 254.196 310.951 247.254 304.695C242.588 300.497 244.927 296.942 247.265 293.388C247.434 293.132 247.602 292.876 247.768 292.619C250.236 288.805 253.351 288.607 257.311 290.93C259.805 292.372 262.499 293.465 265.194 294.56C267.162 295.358 269.13 296.158 271.023 297.093C273.973 298.41 276.691 300.192 279.074 302.372C286.755 310.08 295.004 316.666 305.655 319.899C306.678 320.326 307.598 320.97 308.349 321.785C309.101 322.601 309.668 323.569 310.01 324.624C311.963 332.147 316.82 337.162 322.812 341.518C324.693 343.09 326.457 344.797 328.091 346.625C327.421 347.067 326.757 347.519 326.093 347.971C324.338 349.165 322.584 350.358 320.727 351.363ZM258.653 328.985C258.504 329.148 258.398 329.265 258.366 329.309L258.314 329.283C256.102 329.013 254.065 328.779 252.151 328.559C248.08 328.092 244.56 327.688 241.077 327.132C238.729 326.839 236.475 326.027 234.478 324.756C227.576 319.767 227.562 315.9 234.029 310.357L234.237 310.179C240.968 304.395 241.463 303.97 248.283 310.502C252.133 314.161 255.144 318.729 258.129 323.258C258.848 324.349 259.566 325.438 260.293 326.511C260.558 326.893 259.258 328.321 258.653 328.985ZM250.359 370.012C250.618 369.802 250.832 369.627 250.949 369.497C260.861 369.497 264.094 371.556 263.949 376.835C263.857 380.293 263.078 383.527 258.776 383.751C254.763 383.962 248.032 377.073 248.31 372.678C248.369 371.633 249.569 370.656 250.359 370.012ZM227.905 323.872L222.692 325.192L212.24 321.589C213.233 321.281 214.228 320.905 215.224 320.53C217.643 319.618 220.065 318.704 222.468 318.751C223.74 318.769 224.982 320.333 226.222 321.896C226.782 322.603 227.343 323.309 227.905 323.872Z" fill="black"/>
</svg>
