<svg width="114" height="68" viewBox="0 0 114 68" fill="none" xmlns="http://www.w3.org/2000/svg">
<g style="mix-blend-mode:difference">
<path d="M113.133 31.469L83.4107 0.369888C83.1825 0.13278 82.8915 0 82.5846 0H75.6223C75.0401 0 74.7726 0.872557 75.2132 1.3278L102.764 30.1601L0.629368 30.5774C0.283216 30.5774 0 30.9189 0 31.3362V37.0268C0 37.4441 0.283216 37.7855 0.629368 37.7855L102.756 37.3682L75.2053 66.2005C74.7647 66.6652 75.0322 67.5283 75.6144 67.5283H82.8128C82.9623 67.5283 83.1117 67.4619 83.2219 67.3386L113.133 36.0594C113.405 35.7738 113.623 35.4212 113.773 35.0253C113.923 34.6293 114 34.1993 114 33.7642C114 33.329 113.923 32.899 113.773 32.5031C113.623 32.1071 113.405 31.7545 113.133 31.469Z" fill="white"/>
</g>
</svg>
